# xmcd
#
# Track frame offsets: 
#        182
#        7842
#        20980
#        36482
#        53935
#        65955
#        75440
#        89652
#        103290
#        119510
#        137447
#        156312
#        178685
#
# Disc length: 2400 seconds
#
# Revision: 11
# Processed by: cddbd v1.5.2PL0 Copyright (c) Steve Scherf et al.
# Submitted via: ExactAudioCopy v1.1
#
DISCID=b9095e0d
DTITLE=Willie Nelson - Spirit
DYEAR=1996
DGENRE=Country
TTITLE0=Matador
TTITLE1=She Is Gone
TTITLE2=Your Memory Won't Die In My Grave
TTITLE3=I'm Not Trying To Forget You Anymore
TTITLE4=Too Sick To Pray
TTITLE5=Mariachi
TTITLE6=I'm Waiting Forever
TTITLE7=We Don't Run
TTITLE8=I Guess I've Come To Live Here In Your Eyes
TTITLE9=It's A Dream Come True
TTITLE10=I Thought About You, Lord
TTITLE11=Spirit Of E9
TTITLE12=Matador
EXTD=
EXTT0=
EXTT1=
EXTT2=
EXTT3=
EXTT4=
EXTT5=
EXTT6=
EXTT7=
EXTT8=
EXTT9=
EXTT10=
EXTT11=
EXTT12=
PLAYORDER=
